<?xml version="1.0" encoding="utf-8"?>
<!-- Generator: Adobe Illustrator 19.1.0, SVG Export Plug-In . SVG Version: 6.00 Build 0)  -->
<svg version="1.1" id="Layer_2" xmlns="http://www.w3.org/2000/svg" xmlns:xlink="http://www.w3.org/1999/xlink" x="0px" y="0px"
	 width="64px" height="64px" viewBox="0 0 64 64" enable-background="new 0 0 64 64" xml:space="preserve">
<path fill="#846558" d="M19.207,44.293c-0.391-0.391-1.023-0.391-1.414,0s-0.391,1.023,0,1.414l7.197,7.197
	C24.329,52.966,23.664,53,23,53C11.42,53,2,43.579,2,32c0-8.261,4.871-15.784,12.409-19.168l-0.819-1.824
	C5.334,14.713,0,22.953,0,32c0,12.683,10.318,23,23,23c0.732,0,1.465-0.039,2.194-0.108l-7.401,7.401
	c-0.391,0.391-0.391,1.023,0,1.414C17.988,63.902,18.244,64,18.5,64s0.512-0.098,0.707-0.293l9-9c0.391-0.391,0.391-1.023,0-1.414
	L19.207,44.293z M55,41H44.167C45.381,38.159,46,35.14,46,32C46,19.317,35.682,9,23,9c-0.735,0-1.471,0.048-2.203,0.117l7.41-7.41
	c0.391-0.391,0.391-1.023,0-1.414s-1.023-0.391-1.414,0l-9,9c-0.391,0.391-0.391,1.023,0,1.414l9,9C26.988,19.902,27.244,20,27.5,20
	s0.512-0.098,0.707-0.293c0.391-0.391,0.391-1.023,0-1.414l-7.189-7.189C21.677,11.042,22.339,11,23,11c11.58,0,21,9.421,21,21
	c0,3.159-0.688,6.181-2.031,9H41c-4.962,0-9,4.037-9,9s4.038,9,9,9h14c4.962,0,9-4.037,9-9S59.962,41,55,41z M19.914,10l0.052-0.052
	l0.016,0.12L19.914,10z M55,57H41c-3.86,0-7-3.141-7-7s3.14-7,7-7h14c3.86,0,7,3.141,7,7S58.86,57,55,57z M55,45
	c-2.757,0-5,2.243-5,5s2.243,5,5,5s5-2.243,5-5S57.757,45,55,45z M55,53c-1.654,0-3-1.346-3-3s1.346-3,3-3s3,1.346,3,3
	S56.654,53,55,53z"/>
</svg>
