<?xml version="1.0" encoding="utf-8"?>
<!-- Generator: Adobe Illustrator 21.1.0, SVG Export Plug-In . SVG Version: 6.00 Build 0)  -->
<svg version="1.1" id="Layer_1" xmlns="http://www.w3.org/2000/svg" xmlns:xlink="http://www.w3.org/1999/xlink" x="0px" y="0px"
	 width="64px" height="64px" viewBox="0 0 64 64" enable-background="new 0 0 64 64" xml:space="preserve">
<polyline fill="none" stroke="#F7B21D" stroke-width="2" stroke-linecap="round" stroke-linejoin="round" stroke-miterlimit="10" points="
	36.918,49 1,49 1,7 63,7 63,49 48,49 "/>
<path fill="none" stroke="#F7B21D" stroke-width="2" stroke-linecap="round" stroke-linejoin="round" stroke-miterlimit="10" d="
	M9,7c0,0-0.083,8-8,8"/>
<path fill="none" stroke="#F7B21D" stroke-width="2" stroke-linecap="round" stroke-linejoin="round" stroke-miterlimit="10" d="
	M54,7c0,0,0.083,8,8,8"/>
<path fill="none" stroke="#F7B21D" stroke-width="2" stroke-linecap="round" stroke-linejoin="round" stroke-miterlimit="10" d="
	M9,48c0,0-0.083-8-8-8"/>
<path fill="none" stroke="#F7B21D" stroke-width="2" stroke-linecap="round" stroke-linejoin="round" stroke-miterlimit="10" d="
	M54,48c0,0,0.083-8,8-8"/>
<circle fill="none" stroke="#F7B21D" stroke-width="2" stroke-linecap="round" stroke-linejoin="round" stroke-miterlimit="10" cx="42.5" cy="38.5" r="8.5"/>
<polyline fill="none" stroke="#F7B21D" stroke-width="2" stroke-linecap="round" stroke-linejoin="round" stroke-miterlimit="10" points="
	36.918,44.904 36.918,59 42.459,53.459 48,59 48,44.978 "/>
<line fill="none" stroke="#F7B21D" stroke-width="2" stroke-linecap="round" stroke-linejoin="round" stroke-miterlimit="10" x1="25" y1="18" x2="39" y2="18"/>
<line fill="none" stroke="#F7B21D" stroke-width="2" stroke-linecap="round" stroke-linejoin="round" stroke-miterlimit="10" x1="14" y1="24" x2="50" y2="24"/>
</svg>
