<?xml version="1.0" encoding="utf-8"?>
<!-- Generator: Adobe Illustrator 19.1.0, SVG Export Plug-In . SVG Version: 6.00 Build 0)  -->
<svg version="1.1" id="Layer_2" xmlns="http://www.w3.org/2000/svg" xmlns:xlink="http://www.w3.org/1999/xlink" x="0px" y="0px"
	 width="64px" height="64px" viewBox="0 0 64 64" enable-background="new 0 0 64 64" xml:space="preserve">
<path fill="#5F6062" d="M13,29H8v14h4.801c4.841,0,6.781-3.661,6.781-7.241C19.583,32.298,17.641,29,13,29z M12.781,41H10V31h2.821
	c3.161,0,4.501,2.479,4.501,4.96C17.322,38.481,16.082,41,12.781,41z M31,29h2v14h-2.621l-5.24-9.282l-1.04-2.261l-0.18,0.021
	L24,34.078V43h-1.822L22,29h3l4.979,8.899l0.96,1.96l0.06,0.02l-0.3-2.521L31,29z M44.442,39.039C44.302,41.699,41.841,43,39.641,43
	c-1.86,0-3.821-1.04-4.641-3.241l1.9-0.939c0.66,1.42,1.62,2.1,2.8,2.1c1.38,0.021,2.381-0.819,2.441-2
	c0.12-1.681-1.521-2.16-2.681-2.461c-1.78-0.479-4.141-1.36-4.041-4.181c0.06-2.74,2.301-3.94,4.421-3.94
	c1.84,0,3.581,1.06,4.321,3.12l-1.801,0.82c-0.52-1.3-1.58-1.9-2.541-1.9c-1.04-0.02-2.08,0.601-2.16,1.961
	c-0.08,1.32,1.4,1.86,2.4,2.12C42.222,35.018,44.562,35.878,44.442,39.039z M53,8c-6.065,0-11,4.935-11,11
	c0,1.041,0.155,2.045,0.426,3H5c-2.757,0-5,2.243-5,5v18c0,2.757,2.243,5,5,5h42c2.757,0,5-2.243,5-5V29.949
	C52.33,29.979,52.662,30,53,30c6.065,0,11-4.935,11-11S59.065,8,53,8z M50,45c0,1.654-1.346,3-3,3H5c-1.654,0-3-1.346-3-3V27
	c0-1.654,1.346-3,3-3h38.214c1.379,2.688,3.828,4.733,6.786,5.574V45z M53,28c-4.962,0-9-4.037-9-9s4.038-9,9-9s9,4.037,9,9
	S57.962,28,53,28z M58.707,15.293c0.391,0.391,0.391,1.023,0,1.414l-6,6C52.512,22.902,52.256,23,52,23s-0.512-0.098-0.707-0.293
	l-4-4c-0.391-0.391-0.391-1.023,0-1.414s1.023-0.391,1.414,0L52,20.586l5.293-5.293C57.684,14.902,58.316,14.902,58.707,15.293z"/>
</svg>
