<?xml version="1.0" encoding="utf-8"?>
<!-- Generator: Adobe Illustrator 19.1.0, SVG Export Plug-In . SVG Version: 6.00 Build 0)  -->
<svg version="1.1" id="Layer_2" xmlns="http://www.w3.org/2000/svg" xmlns:xlink="http://www.w3.org/1999/xlink" x="0px" y="0px"
	 width="64px" height="64px" viewBox="0 0 64 64" enable-background="new 0 0 64 64" xml:space="preserve">
<path fill="#77B53C" d="M56,15.567L39.396,0H7v58h32v5c0,0.404,0.244,0.77,0.617,0.924c0.374,0.155,0.803,0.069,1.09-0.217
	L43,61.414l2.293,2.293C45.484,63.898,45.74,64,46,64c0.129,0,0.259-0.024,0.383-0.076C46.756,63.77,47,63.404,47,63v-5h9V15.567z
	 M40,3.308L52.471,15H40V3.308z M38.211,47.183c-0.108-0.616-0.488-1.138-1.041-1.43l-1.158-0.639l1.302-0.181
	c0.62-0.085,1.154-0.444,1.467-0.986c0.313-0.541,0.358-1.185,0.122-1.765l-0.477-1.233l1.115,0.7
	c0.529,0.331,1.169,0.399,1.758,0.186c0.587-0.214,1.035-0.678,1.227-1.273l0.421-1.267c0,0,0.003,0.005,0.006,0.016l0.403,1.252
	c0.192,0.595,0.64,1.059,1.227,1.272c0.588,0.214,1.228,0.146,1.759-0.187l1.132-0.685l-0.496,1.219
	c-0.236,0.58-0.191,1.224,0.122,1.765c0.313,0.542,0.848,0.901,1.466,0.986l1.307,0.204l-1.162,0.615
	c-0.553,0.292-0.933,0.813-1.042,1.43c-0.109,0.616,0.07,1.235,0.489,1.699l0.87,0.996l-1.286-0.276
	c-0.602-0.128-1.215,0.021-1.691,0.409C46.035,50.01,46.019,50,46,50c-0.552,0-1,0.447-1,1v1.533l-0.471-0.605
	c-0.384-0.493-0.963-0.776-1.588-0.776s-1.205,0.283-1.588,0.776L41,52.365V51c0-0.553-0.448-1-1-1
	c-0.052,0-0.096,0.022-0.145,0.029c-0.001-0.001-0.001-0.001-0.002-0.002c-0.479-0.402-1.104-0.556-1.716-0.426l-1.298,0.256
	l0.882-0.976C38.141,48.418,38.32,47.799,38.211,47.183z M43.707,59.293c-0.391-0.391-1.023-0.391-1.414,0L41,60.586v-5.662
	c0.433-0.102,0.829-0.35,1.123-0.729l0.828-1.038l0.807,1.037c0.32,0.413,0.764,0.651,1.242,0.733v5.66L43.707,59.293z M54,56h-7
	v-1.889c0.242-0.347,0.375-0.77,0.358-1.227l-0.034-1.327l1.285,0.276c0.869,0.187,1.72-0.188,2.166-0.96s0.348-1.696-0.25-2.357
	l-0.878-0.995l1.162-0.615c0.787-0.415,1.195-1.25,1.041-2.127s-0.824-1.522-1.706-1.645l-1.313-0.197l0.496-1.219
	c0.335-0.825,0.111-1.728-0.571-2.3c-0.682-0.572-1.609-0.636-2.363-0.162l-1.133,0.692l-0.403-1.252v-0.001
	c-0.274-0.847-1.025-1.394-1.916-1.394s-1.642,0.547-1.916,1.395l-0.422,1.259l-1.113-0.699c-0.754-0.473-1.683-0.411-2.364,0.162
	c-0.683,0.572-0.907,1.475-0.571,2.3l0.485,1.235l-1.303,0.181c-0.882,0.122-1.552,0.768-1.706,1.645s0.254,1.712,1.041,2.127
	l1.167,0.635l-0.883,0.976c-0.597,0.661-0.695,1.586-0.249,2.357c0.445,0.771,1.297,1.149,2.165,0.96l1.301-0.263l-0.049,1.313
	c-0.019,0.519,0.167,0.984,0.477,1.354V56H9V2h29v15h16V56z M31.5,15c0.828,0,1.5-0.672,1.5-1.5S32.328,12,31.5,12
	S30,12.672,30,13.5S30.672,15,31.5,15z M16,21c0,0.553,0.448,1,1,1h29c0.552,0,1-0.447,1-1s-0.448-1-1-1H17
	C16.448,20,16,20.447,16,21z M46,25H17c-0.552,0-1,0.447-1,1s0.448,1,1,1h29c0.552,0,1-0.447,1-1S46.552,25,46,25z M46,30H17
	c-0.552,0-1,0.447-1,1s0.448,1,1,1h29c0.552,0,1-0.447,1-1S46.552,30,46,30z M30,35H17c-0.552,0-1,0.447-1,1s0.448,1,1,1h13
	c0.552,0,1-0.447,1-1S30.552,35,30,35z"/>
</svg>
