<?xml version="1.0" encoding="utf-8"?>
<!-- Generator: Adobe Illustrator 19.1.0, SVG Export Plug-In . SVG Version: 6.00 Build 0)  -->
<svg version="1.1" id="Layer_2" xmlns="http://www.w3.org/2000/svg" xmlns:xlink="http://www.w3.org/1999/xlink" x="0px" y="0px"
	 width="64px" height="64px" viewBox="0 0 64 64" enable-background="new 0 0 64 64" xml:space="preserve">
<path fill="#6B7EC4" d="M58,38l-4,3.586V15.567L37.45,0H0v64h54v-9.586L64,44L58,38z M38,3.308L50.526,15H38V3.308z M52,62H2V2h34
	l0.055,15H52v26.586l-6.89,6.89l-1.766,6.177c-0.161,0.566-0.002,1.176,0.414,1.591c0.308,0.308,0.721,0.474,1.144,0.474
	c0.148,0,0.298-0.021,0.445-0.062l6.177-1.765L52,56.415V62z M46.495,52.909l2.597,2.597l-3.635,1.039L46.495,52.909z M51,54.586
	L47.414,51L58,40.414L61.586,44L51,54.586z M27,19c-9.374,0-17,7.626-17,17c0,1.524,0.22,2.995,0.599,4.402l-0.041,0.013
	c0.01,0.035,0.051,0.154,0.125,0.312C12.737,47.806,19.267,53,27,53c9.374,0,17-7.626,17-17S36.374,19,27,19z M15.527,26.357
	c0.674,0.286,1.182,0.667,1.182,0.869c0,0.6-1.077,1.009-1.68,1.07c-1.097,0.11-1.658,1.312-1.645,2.443
	c0.014,1.198,0.684,2.054,1.668,2.129c0.534,0.041,1.682,0.599,2.114,1.256c0.191,0.291,0.136,0.451,0.113,0.52
	c-0.381,1.114-1.191,2.225-1.734,2.377c-0.064,0.019-0.13,0.038-0.28-0.086c-1.069-0.888-2.198-1.212-3.262-0.989
	C12.016,32.297,13.341,28.954,15.527,26.357z M21.764,48.495c-0.196,0.547-0.57,0.865-1.144,0.974l0.018,0.095
	c-3.138-1.478-5.678-4.007-7.171-7.136c0.474-0.016,0.979-0.125,1.514-0.337c1.295-0.514,2.549-0.611,3.274-0.257
	c0.297,0.146,0.474,0.348,0.558,0.637c0.423,1.463,1.326,2.418,2.123,3.261c0.228,0.241,0.451,0.475,0.65,0.715
	C21.847,46.759,22.045,47.712,21.764,48.495z M27,51c-1.435,0-2.818-0.215-4.133-0.592c0.328-0.346,0.604-0.748,0.78-1.237
	c0.482-1.345,0.257-3.066-0.524-4.004c-0.226-0.271-0.476-0.537-0.733-0.809c-0.703-0.743-1.366-1.445-1.655-2.443
	c-0.241-0.833-0.794-1.482-1.599-1.877c-1.252-0.613-3.035-0.543-4.892,0.193c-0.385,0.153-0.924,0.297-1.308,0.121
	c-0.188-0.087-0.306-0.235-0.379-0.355c-0.181-0.654-0.319-1.325-0.41-2.011c0.448-0.195,1.034-0.182,1.841,0.488
	c0.444,0.369,0.955,0.559,1.481,0.559c0.204,0,0.411-0.028,0.616-0.086c1.603-0.451,2.693-2.51,3.085-3.655
	c0.259-0.757,0.143-1.541-0.335-2.267c-0.793-1.207-2.432-1.976-3.439-2.128c-0.034-0.177-0.007-0.467,0.06-0.64
	c1.386-0.213,3.252-1.148,3.252-3.031c0-1.133-0.853-1.896-1.707-2.376C19.659,22.465,23.157,21,27,21
	c1.436,0,2.821,0.215,4.137,0.593c-0.141,0.445-0.185,0.961-0.019,1.528c-0.09,0.021-0.182,0.04-0.264,0.058
	c-0.5,0.107-1.121,0.24-1.72,0.54c-1.212,0.606-1.097,1.896-1.021,2.75c0.099,1.104,0.075,1.555-0.57,1.917
	c-2.46,1.382-2.041,4.512-1.475,5.975l0.208,0.538l0.569,0.089c0.326,0.051,3.236,0.451,4.884-1.303
	c0.286-0.302,1.545-0.156,2.329,0.53c0.646,0.565,0.346,0.934,0.212,1.108c-0.386,0.273-2.216,0.353-3.198,0.396
	c-1.423,0.062-2.325,0.112-2.914,0.361c-0.97,0.411-1.538,1.151-1.518,1.981c0.025,1.028,0.893,1.863,2.58,2.481
	c1.916,0.703,2.428,1.321,2.563,1.627c0.056,0.128,0.104,0.317-0.031,0.644c-0.344,0.836-0.167,1.841,0.486,2.759
	c0.693,0.973,2.028,1.952,3.896,2.3C33.601,49.825,30.439,51,27,51z M37.955,46.213l-0.012-0.211
	c-2.084,0.121-3.501-0.782-4.076-1.59c-0.267-0.375-0.326-0.691-0.266-0.837c0.312-0.756,0.316-1.521,0.012-2.21
	c-0.479-1.091-1.657-1.95-3.705-2.701c-0.724-0.266-1.05-0.496-1.189-0.625c0.052-0.036,0.123-0.077,0.218-0.117
	c0.286-0.121,1.451-0.172,2.221-0.205c2.408-0.105,3.92-0.23,4.616-1.084c1.032-1.267,0.875-2.806-0.4-3.922
	c-1.418-1.241-3.901-1.673-5.104-0.394c-0.596,0.634-1.747,0.759-2.505,0.744c-0.191-0.827-0.349-2.309,0.756-2.929
	c1.833-1.03,1.676-2.788,1.583-3.838c-0.026-0.291-0.065-0.729-0.077-0.784c0.372-0.186,0.815-0.281,1.244-0.373
	c0.733-0.157,1.492-0.32,1.847-1.03c0.216-0.433,0.199-0.925-0.05-1.461c-0.064-0.137-0.065-0.259-0.046-0.372
	c4.327,1.906,7.586,5.794,8.622,10.511c-0.753,0.616-1.866,1.63-2.504,2.708c-1.076,1.817,0.908,4.667,1.857,5.86
	C40.299,43.168,39.261,44.813,37.955,46.213z M40.86,36.509c0.263-0.444,0.671-0.906,1.098-1.326C41.973,35.456,42,35.724,42,36
	c0,0.987-0.102,1.95-0.285,2.884C41.061,37.817,40.673,36.826,40.86,36.509z"/>
</svg>
