<?xml version="1.0" encoding="utf-8"?>
<!-- Generator: Adobe Illustrator 19.1.0, SVG Export Plug-In . SVG Version: 6.00 Build 0)  -->
<svg version="1.1" id="Layer_2" xmlns="http://www.w3.org/2000/svg" xmlns:xlink="http://www.w3.org/1999/xlink" x="0px" y="0px"
	 width="64px" height="64px" viewBox="0 0 64 64" enable-background="new 0 0 64 64" xml:space="preserve">
<path fill="#00A0DF" d="M59,46h-3v-7c0-2.767-1.672-8-8-8H33V18h3c2.757,0,5-2.243,5-5V5c0-2.757-2.243-5-5-5h-8
	c-2.757,0-5,2.243-5,5v8c0,2.757,2.243,5,5,5h3v13H16c-6.328,0-8,5.233-8,8v7H5c-2.757,0-5,2.243-5,5v8c0,2.757,2.243,5,5,5h8
	c2.757,0,5-2.243,5-5v-8c0-2.757-2.243-5-5-5h-3v-6.997C10.004,38.389,10.205,33,16,33h15v13h-3c-2.757,0-5,2.243-5,5v8
	c0,2.757,2.243,5,5,5h8c2.757,0,5-2.243,5-5v-8c0-2.757-2.243-5-5-5h-3V33h15c5.795,0,5.996,5.389,6,6v7h-3c-2.757,0-5,2.243-5,5v8
	c0,2.757,2.243,5,5,5h8c2.757,0,5-2.243,5-5v-8C64,48.243,61.757,46,59,46z M25,13V5c0-1.654,1.346-3,3-3h8c1.654,0,3,1.346,3,3v8
	c0,1.654-1.346,3-3,3h-8C26.346,16,25,14.654,25,13z M16,51v8c0,1.654-1.346,3-3,3H5c-1.654,0-3-1.346-3-3v-8c0-1.654,1.346-3,3-3h8
	C14.654,48,16,49.346,16,51z M39,51v8c0,1.654-1.346,3-3,3h-8c-1.654,0-3-1.346-3-3v-8c0-1.654,1.346-3,3-3h8
	C37.654,48,39,49.346,39,51z M62,59c0,1.654-1.346,3-3,3h-8c-1.654,0-3-1.346-3-3v-8c0-1.654,1.346-3,3-3h8c1.654,0,3,1.346,3,3V59z
	"/>
</svg>
