<?xml version="1.0" encoding="utf-8"?>
<!-- Generator: Adobe Illustrator 19.2.0, SVG Export Plug-In . SVG Version: 6.00 Build 0)  -->
<svg version="1.1" id="Layer_2" xmlns="http://www.w3.org/2000/svg" xmlns:xlink="http://www.w3.org/1999/xlink" x="0px" y="0px"
	 width="64px" height="64px" viewBox="0 0 64 64" enable-background="new 0 0 64 64" xml:space="preserve">
<g>
	<path fill="#7D4199" d="M55.617,51.727c-0.331-0.356-0.77-0.592-1.32-0.708v-0.048c0.382-0.159,0.682-0.408,0.899-0.747
		c0.217-0.338,0.325-0.725,0.325-1.159c0-0.374-0.079-0.705-0.236-0.991c-0.157-0.287-0.395-0.516-0.714-0.687
		c-0.295-0.159-0.61-0.264-0.947-0.314C53.289,47.025,52.794,47,52.141,47H49v8.892h3.559c0.617,0,1.126-0.056,1.526-0.167
		c0.4-0.111,0.767-0.299,1.102-0.561c0.283-0.219,0.508-0.496,0.675-0.83c0.167-0.334,0.251-0.723,0.251-1.165
		C56.113,52.564,55.947,52.083,55.617,51.727z M53.151,50.028c-0.068,0.147-0.191,0.263-0.37,0.346
		c-0.163,0.076-0.322,0.117-0.475,0.125c-0.153,0.008-0.421,0.012-0.803,0.012h-0.281V48.63h0.155c0.398,0,0.698,0.003,0.899,0.009
		c0.201,0.006,0.375,0.041,0.523,0.104c0.155,0.068,0.27,0.177,0.343,0.328c0.074,0.151,0.11,0.299,0.11,0.442
		C53.252,49.709,53.218,49.881,53.151,50.028z M53.673,53.704c-0.094,0.169-0.242,0.298-0.445,0.385
		c-0.231,0.1-0.458,0.153-0.681,0.161c-0.223,0.008-0.625,0.012-1.206,0.012h-0.119v-2.228h0.412c0.398,0,0.716,0.003,0.953,0.009
		c0.237,0.006,0.423,0.035,0.558,0.087c0.223,0.08,0.39,0.197,0.502,0.352c0.111,0.155,0.167,0.37,0.167,0.645
		C53.813,53.342,53.767,53.534,53.673,53.704z"/>
	<path id="f" fill="#7D4199" d="M53.016,18v-5.435h1.824l0.273-2.118h-2.098V9.094c0-0.613,0.17-1.031,1.05-1.031l1.122-0.001V6.168
		c-0.194-0.026-0.86-0.083-1.634-0.083c-1.617,0-2.724,0.987-2.724,2.8v1.562H49v2.118h1.829V18H53.016z"/>
	<path fill="#7D4199" d="M52,40c-3.96,0-7.463,1.94-9.65,4.907l-1.197-4.787c-0.134-0.537-0.678-0.86-1.213-0.728
		c-0.536,0.134-0.861,0.677-0.728,1.212l0.887,3.545l-7.889-4.602C33.345,37.27,34,34.713,34,32s-0.655-5.27-1.79-7.548l7.889-4.602
		l-0.887,3.545c-0.134,0.535,0.192,1.078,0.728,1.212c0.082,0.021,0.163,0.03,0.244,0.03c0.448,0,0.855-0.303,0.969-0.758
		l1.197-4.787C44.537,22.06,48.04,24,52,24c6.617,0,12-5.383,12-12S58.617,0,52,0c-6.617,0-12,5.383-12,12
		c0,1.639,0.351,3.191,0.949,4.615l-4.889-1.222c-0.533-0.135-1.079,0.19-1.213,0.728c-0.134,0.535,0.192,1.078,0.728,1.212
		l3.409,0.852l-7.763,4.528C28.182,18.075,22.947,15,17,15C7.626,15,0,22.626,0,32c0,1.524,0.22,2.995,0.599,4.402l-0.041,0.013
		c0.01,0.035,0.051,0.154,0.125,0.312C2.737,43.806,9.267,49,17,49c5.947,0,11.182-3.075,14.221-7.713l7.763,4.528l-3.409,0.852
		c-0.536,0.134-0.861,0.677-0.728,1.212c0.114,0.455,0.521,0.758,0.969,0.758c0.081,0,0.162-0.01,0.244-0.03l4.889-1.222
		C40.351,48.809,40,50.361,40,52c0,6.617,5.383,12,12,12c6.617,0,12-5.383,12-12S58.617,40,52,40z M52,2c5.514,0,10,4.486,10,10
		s-4.486,10-10,10c-5.514,0-10-4.486-10-10S46.486,2,52,2z M5.527,22.357c0.674,0.286,1.182,0.667,1.182,0.869
		c0,0.6-1.077,1.009-1.68,1.07c-1.097,0.11-1.658,1.312-1.645,2.443c0.014,1.198,0.684,2.054,1.668,2.129
		c0.534,0.041,1.682,0.599,2.114,1.256c0.191,0.291,0.136,0.451,0.113,0.52c-0.381,1.114-1.191,2.225-1.734,2.377
		c-0.064,0.019-0.13,0.038-0.28-0.086c-1.069-0.888-2.198-1.212-3.262-0.989C2.016,28.297,3.341,24.954,5.527,22.357z
		 M11.764,44.495c-0.196,0.547-0.57,0.865-1.144,0.974l0.018,0.095c-3.138-1.478-5.678-4.007-7.171-7.136
		c0.474-0.016,0.979-0.125,1.514-0.337c1.295-0.514,2.549-0.611,3.274-0.257c0.297,0.146,0.474,0.348,0.558,0.637
		c0.423,1.463,1.326,2.418,2.123,3.261c0.228,0.241,0.451,0.475,0.65,0.715C11.847,42.759,12.045,43.712,11.764,44.495z M17,47
		c-1.435,0-2.818-0.215-4.133-0.592c0.328-0.346,0.604-0.748,0.78-1.237c0.482-1.345,0.257-3.066-0.524-4.004
		c-0.226-0.271-0.476-0.537-0.733-0.809c-0.703-0.743-1.366-1.445-1.655-2.443c-0.241-0.833-0.794-1.482-1.599-1.877
		c-1.252-0.613-3.035-0.543-4.892,0.193c-0.385,0.153-0.924,0.297-1.308,0.121c-0.188-0.087-0.306-0.235-0.379-0.355
		c-0.181-0.654-0.319-1.325-0.41-2.011c0.448-0.195,1.034-0.182,1.841,0.488c0.444,0.369,0.955,0.559,1.481,0.559
		c0.204,0,0.411-0.028,0.616-0.086c1.603-0.451,2.693-2.51,3.085-3.655c0.259-0.757,0.143-1.541-0.335-2.267
		c-0.793-1.207-2.432-1.976-3.439-2.128c-0.034-0.177-0.007-0.467,0.06-0.64c1.386-0.213,3.252-1.148,3.252-3.031
		c0-1.133-0.853-1.896-1.707-2.376C9.659,18.465,13.157,17,17,17c1.436,0,2.821,0.215,4.137,0.593
		c-0.141,0.445-0.185,0.961-0.019,1.528c-0.09,0.021-0.182,0.04-0.264,0.058c-0.5,0.107-1.121,0.24-1.72,0.54
		c-1.212,0.606-1.097,1.896-1.021,2.75c0.099,1.104,0.075,1.555-0.57,1.917c-2.46,1.382-2.041,4.512-1.475,5.975l0.208,0.538
		l0.569,0.089c0.326,0.051,3.236,0.451,4.884-1.303c0.286-0.302,1.545-0.156,2.329,0.53c0.646,0.565,0.346,0.934,0.212,1.108
		c-0.386,0.273-2.216,0.353-3.198,0.396c-1.423,0.062-2.325,0.112-2.914,0.361c-0.97,0.411-1.538,1.151-1.518,1.981
		c0.025,1.028,0.893,1.863,2.58,2.481c1.916,0.703,2.428,1.321,2.563,1.627c0.056,0.128,0.104,0.317-0.031,0.644
		c-0.344,0.836-0.167,1.841,0.486,2.759c0.693,0.973,2.028,1.952,3.896,2.3C23.601,45.825,20.439,47,17,47z M27.955,42.213
		l-0.012-0.211c-2.084,0.121-3.501-0.782-4.076-1.59c-0.267-0.375-0.326-0.691-0.266-0.837c0.312-0.756,0.316-1.521,0.012-2.21
		c-0.479-1.091-1.657-1.95-3.705-2.701c-0.724-0.266-1.05-0.496-1.189-0.625c0.052-0.036,0.123-0.077,0.218-0.117
		c0.286-0.121,1.451-0.172,2.221-0.205c2.408-0.105,3.92-0.23,4.616-1.084c1.032-1.267,0.875-2.806-0.4-3.922
		c-1.418-1.241-3.901-1.673-5.104-0.394c-0.596,0.634-1.747,0.759-2.505,0.744c-0.191-0.827-0.349-2.309,0.756-2.929
		c1.833-1.03,1.676-2.788,1.583-3.838c-0.026-0.291-0.065-0.729-0.077-0.784c0.372-0.186,0.815-0.281,1.244-0.373
		c0.733-0.157,1.492-0.32,1.847-1.03c0.216-0.433,0.199-0.925-0.05-1.461c-0.064-0.137-0.065-0.259-0.046-0.372
		c4.327,1.906,7.586,5.794,8.622,10.511c-0.753,0.616-1.866,1.63-2.504,2.708c-1.076,1.817,0.908,4.667,1.857,5.86
		C30.299,39.168,29.261,40.813,27.955,42.213z M31.715,34.884c-0.654-1.067-1.042-2.058-0.855-2.375
		c0.263-0.444,0.671-0.906,1.098-1.326C31.973,31.456,32,31.724,32,32C32,32.987,31.898,33.95,31.715,34.884z M52,62
		c-5.514,0-10-4.486-10-10s4.486-10,10-10c5.514,0,10,4.486,10,10S57.514,62,52,62z"/>
</g>
</svg>
