<svg xmlns="http://www.w3.org/2000/svg" width="64" height="64"><path fill="#846558" d="M19.207 44.293a.999.999 0 10-1.414 1.414l7.197 7.197c-.661.062-1.326.096-1.99.096-11.58 0-21-9.421-21-21a21.041 21.041 0 0112.409-19.168l-.819-1.824A23.042 23.042 0 000 32c0 12.683 10.318 23 23 23 .732 0 1.465-.039 2.194-.108l-7.401 7.401a.999.999 0 101.414 1.414l9-9a.999.999 0 000-1.414l-9-9zM55 41H44.167A22.743 22.743 0 0046 32C46 19.317 35.682 9 23 9c-.735 0-1.471.048-2.203.117l7.41-7.41A.999.999 0 1026.793.293l-9 9a.999.999 0 000 1.414l9 9a.997.997 0 001.414 0 .999.999 0 000-1.414l-7.189-7.189A21.183 21.183 0 0123 11c11.58 0 21 9.421 21 21 0 3.159-.688 6.181-2.031 9H41c-4.962 0-9 4.037-9 9s4.038 9 9 9h14c4.962 0 9-4.037 9-9s-4.038-9-9-9zM19.914 10l.052-.052.016.12-.068-.068zM55 57H41c-3.86 0-7-3.141-7-7s3.14-7 7-7h14c3.86 0 7 3.141 7 7s-3.14 7-7 7zm0-12c-2.757 0-5 2.243-5 5s2.243 5 5 5 5-2.243 5-5-2.243-5-5-5zm0 8c-1.654 0-3-1.346-3-3s1.346-3 3-3 3 1.346 3 3-1.346 3-3 3z"/></svg>