<svg xmlns="http://www.w3.org/2000/svg" width="64" height="64"><path fill="#5F6062" d="M13 29H8v14h4.801c4.841 0 6.781-3.661 6.781-7.241C19.583 32.298 17.641 29 13 29zm-.219 12H10V31h2.821c3.161 0 4.501 2.479 4.501 4.96 0 2.521-1.24 5.04-4.541 5.04zM31 29h2v14h-2.621l-5.24-9.282-1.04-2.261-.18.021.081 2.6V43h-1.822L22 29h3l4.979 8.899.96 1.96.06.02-.3-2.521L31 29zm13.442 10.039c-.14 2.66-2.601 3.961-4.801 3.961-1.86 0-3.821-1.04-4.641-3.241l1.9-.939c.66 1.42 1.62 2.1 2.8 2.1 1.38.021 2.381-.819 2.441-2 .12-1.681-1.521-2.16-2.681-2.461-1.78-.479-4.141-1.36-4.041-4.181.06-2.74 2.301-3.94 4.421-3.94 1.84 0 3.581 1.06 4.321 3.12l-1.801.82c-.52-1.3-1.58-1.9-2.541-1.9-1.04-.02-2.08.601-2.16 1.961-.08 1.32 1.4 1.86 2.4 2.12 2.163.559 4.503 1.419 4.383 4.58zM53 8c-6.065 0-11 4.935-11 11 0 1.041.155 2.045.426 3H5c-2.757 0-5 2.243-5 5v18c0 2.757 2.243 5 5 5h42c2.757 0 5-2.243 5-5V29.949c.33.03.662.051 1 .051 6.065 0 11-4.935 11-11S59.065 8 53 8zm-3 37c0 1.654-1.346 3-3 3H5c-1.654 0-3-1.346-3-3V27c0-1.654 1.346-3 3-3h38.214A11.036 11.036 0 0050 29.574V45zm3-17c-4.962 0-9-4.037-9-9s4.038-9 9-9 9 4.037 9 9-4.038 9-9 9zm5.707-12.707a.999.999 0 010 1.414l-6 6a.997.997 0 01-1.414 0l-4-4a.999.999 0 111.414-1.414L52 20.586l5.293-5.293a.999.999 0 011.414 0z"/></svg>