<svg xmlns="http://www.w3.org/2000/svg" width="64" height="64"><path fill="#77B53C" d="M56 15.567L39.396 0H7v58h32v5a1 1 0 001.707.707L43 61.414l2.293 2.293A1 1 0 0047 63v-5h9V15.567zM40 3.308L52.471 15H40V3.308zm-1.789 43.875a1.998 1.998 0 00-1.041-1.43l-1.158-.639 1.302-.181a1.995 1.995 0 001.467-.986 1.999 1.999 0 00.122-1.765l-.477-1.233 1.115.7a2.006 2.006 0 001.758.186 2.002 2.002 0 001.227-1.273l.421-1.267s.003.005.006.016l.403 1.252c.192.595.64 1.059 1.227 1.272a2 2 0 001.759-.187l1.132-.685-.496 1.219a1.999 1.999 0 00.122 1.765c.313.542.848.901 1.466.986l1.307.204-1.162.615a2 2 0 00-1.042 1.43 2 2 0 00.489 1.699l.87.996-1.286-.276a2 2 0 00-1.691.409c-.016 0-.032-.01-.051-.01a1 1 0 00-1 1v1.533l-.471-.605a2 2 0 00-1.588-.776c-.625 0-1.205.283-1.588.776l-.353.437V51a1 1 0 00-1-1c-.052 0-.096.022-.145.029l-.002-.002a2.003 2.003 0 00-1.716-.426l-1.298.256.882-.976c.42-.463.599-1.082.49-1.698zm5.496 12.11a.999.999 0 00-1.414 0L41 60.586v-5.662c.433-.102.829-.35 1.123-.729l.828-1.038.807 1.037c.32.413.764.651 1.242.733v5.66l-1.293-1.294zM54 56h-7v-1.889a2 2 0 00.358-1.227l-.034-1.327 1.285.276c.869.187 1.72-.188 2.166-.96s.348-1.696-.25-2.357l-.878-.995 1.162-.615c.787-.415 1.195-1.25 1.041-2.127s-.824-1.522-1.706-1.645l-1.313-.197.496-1.219a1.983 1.983 0 00-.571-2.3 1.98 1.98 0 00-2.363-.162l-1.133.692-.403-1.252v-.001c-.274-.847-1.025-1.394-1.916-1.394s-1.642.547-1.916 1.395l-.422 1.259-1.113-.699a1.982 1.982 0 00-2.364.162 1.98 1.98 0 00-.571 2.3l.485 1.235-1.303.181c-.882.122-1.552.768-1.706 1.645s.254 1.712 1.041 2.127l1.167.635-.883.976a1.982 1.982 0 00-.249 2.357 1.979 1.979 0 002.165.96l1.301-.263-.049 1.313c-.019.519.167.984.477 1.354V56H9V2h29v15h16v39zM31.5 15a1.5 1.5 0 10-.001-3.001A1.5 1.5 0 0031.5 15zM16 21a1 1 0 001 1h29a1 1 0 100-2H17a1 1 0 00-1 1zm30 4H17a1 1 0 100 2h29a1 1 0 100-2zm0 5H17a1 1 0 100 2h29a1 1 0 100-2zm-16 5H17a1 1 0 100 2h13a1 1 0 100-2z"/></svg>