<svg xmlns="http://www.w3.org/2000/svg" width="64" height="64"><g fill="#7D4199"><path d="M55.617 51.727c-.331-.356-.77-.592-1.32-.708v-.048c.382-.159.682-.408.899-.747a2.1 2.1 0 00.325-1.159c0-.374-.079-.705-.236-.991a1.706 1.706 0 00-.714-.687 2.866 2.866 0 00-.947-.314c-.335-.048-.83-.073-1.483-.073H49v8.892h3.559c.617 0 1.126-.056 1.526-.167.4-.111.767-.299 1.102-.561.283-.219.508-.496.675-.83.167-.334.251-.723.251-1.165 0-.605-.166-1.086-.496-1.442zm-2.466-1.699a.719.719 0 01-.37.346 1.282 1.282 0 01-.475.125c-.153.008-.421.012-.803.012h-.281V48.63h.155c.398 0 .698.003.899.009.201.006.375.041.523.104.155.068.27.177.343.328.074.151.11.299.11.442 0 .196-.034.368-.101.515zm.522 3.676a.89.89 0 01-.445.385c-.231.1-.458.153-.681.161-.223.008-.625.012-1.206.012h-.119v-2.228h.412c.398 0 .716.003.953.009.237.006.423.035.558.087.223.08.39.197.502.352.111.155.167.37.167.645a1.182 1.182 0 01-.141.577zM53.016 18v-5.435h1.824l.273-2.118h-2.098V9.094c0-.613.17-1.031 1.05-1.031l1.122-.001V6.168a14.99 14.99 0 00-1.634-.083c-1.617 0-2.724.987-2.724 2.8v1.562H49v2.118h1.829V18h2.187z"/><path d="M52 40c-3.96 0-7.463 1.94-9.65 4.907l-1.197-4.787a1 1 0 00-1.941.484l.887 3.545-7.889-4.602C33.345 37.27 34 34.713 34 32s-.655-5.27-1.79-7.548l7.889-4.602-.887 3.545a1 1 0 101.941.484l1.197-4.787C44.537 22.06 48.04 24 52 24c6.617 0 12-5.383 12-12S58.617 0 52 0 40 5.383 40 12c0 1.639.351 3.191.949 4.615l-4.889-1.222a1 1 0 10-.485 1.94l3.409.852-7.763 4.528C28.182 18.075 22.947 15 17 15 7.626 15 0 22.626 0 32c0 1.524.22 2.995.599 4.402l-.041.013c.01.035.051.154.125.312C2.737 43.806 9.267 49 17 49c5.947 0 11.182-3.075 14.221-7.713l7.763 4.528-3.409.852a1 1 0 00.485 1.94l4.889-1.222A11.879 11.879 0 0040 52c0 6.617 5.383 12 12 12s12-5.383 12-12-5.383-12-12-12zm0-38c5.514 0 10 4.486 10 10s-4.486 10-10 10-10-4.486-10-10S46.486 2 52 2zM5.527 22.357c.674.286 1.182.667 1.182.869 0 .6-1.077 1.009-1.68 1.07-1.097.11-1.658 1.312-1.645 2.443.014 1.198.684 2.054 1.668 2.129.534.041 1.682.599 2.114 1.256.191.291.136.451.113.52-.381 1.114-1.191 2.225-1.734 2.377-.064.019-.13.038-.28-.086-1.069-.888-2.198-1.212-3.262-.989a14.927 14.927 0 013.524-9.589zm6.237 22.138c-.196.547-.57.865-1.144.974l.018.095a15.075 15.075 0 01-7.171-7.136 4.526 4.526 0 001.514-.337c1.295-.514 2.549-.611 3.274-.257.297.146.474.348.558.637.423 1.463 1.326 2.418 2.123 3.261.228.241.451.475.65.715.261.312.459 1.265.178 2.048zM17 47c-1.435 0-2.818-.215-4.133-.592.328-.346.604-.748.78-1.237.482-1.345.257-3.066-.524-4.004a17.813 17.813 0 00-.733-.809c-.703-.743-1.366-1.445-1.655-2.443-.241-.833-.794-1.482-1.599-1.877-1.252-.613-3.035-.543-4.892.193-.385.153-.924.297-1.308.121a.888.888 0 01-.379-.355 14.863 14.863 0 01-.41-2.011c.448-.195 1.034-.182 1.841.488.444.369.955.559 1.481.559.204 0 .411-.028.616-.086 1.603-.451 2.693-2.51 3.085-3.655.259-.757.143-1.541-.335-2.267-.793-1.207-2.432-1.976-3.439-2.128a1.383 1.383 0 01.06-.64c1.386-.213 3.252-1.148 3.252-3.031 0-1.133-.853-1.896-1.707-2.376C9.659 18.465 13.157 17 17 17c1.436 0 2.821.215 4.137.593a2.573 2.573 0 00-.019 1.528c-.09.021-.182.04-.264.058-.5.107-1.121.24-1.72.54-1.212.606-1.097 1.896-1.021 2.75.099 1.104.075 1.555-.57 1.917-2.46 1.382-2.041 4.512-1.475 5.975l.208.538.569.089c.326.051 3.236.451 4.884-1.303.286-.302 1.545-.156 2.329.53.646.565.346.934.212 1.108-.386.273-2.216.353-3.198.396-1.423.062-2.325.112-2.914.361-.97.411-1.538 1.151-1.518 1.981.025 1.028.893 1.863 2.58 2.481 1.916.703 2.428 1.321 2.563 1.627.056.128.104.317-.031.644-.344.836-.167 1.841.486 2.759.693.973 2.028 1.952 3.896 2.3A14.909 14.909 0 0117 47zm10.955-4.787l-.012-.211c-2.084.121-3.501-.782-4.076-1.59-.267-.375-.326-.691-.266-.837.312-.756.316-1.521.012-2.21-.479-1.091-1.657-1.95-3.705-2.701-.724-.266-1.05-.496-1.189-.625a1.2 1.2 0 01.218-.117c.286-.121 1.451-.172 2.221-.205 2.408-.105 3.92-.23 4.616-1.084 1.032-1.267.875-2.806-.4-3.922-1.418-1.241-3.901-1.673-5.104-.394-.596.634-1.747.759-2.505.744-.191-.827-.349-2.309.756-2.929 1.833-1.03 1.676-2.788 1.583-3.838-.026-.291-.065-.729-.077-.784.372-.186.815-.281 1.244-.373.733-.157 1.492-.32 1.847-1.03.216-.433.199-.925-.05-1.461a.602.602 0 01-.046-.372c4.327 1.906 7.586 5.794 8.622 10.511-.753.616-1.866 1.63-2.504 2.708-1.076 1.817.908 4.667 1.857 5.86a15.035 15.035 0 01-3.042 4.86zm3.76-7.329c-.654-1.067-1.042-2.058-.855-2.375.263-.444.671-.906 1.098-1.326.015.273.042.541.042.817 0 .987-.102 1.95-.285 2.884zM52 62c-5.514 0-10-4.486-10-10s4.486-10 10-10 10 4.486 10 10-4.486 10-10 10z"/></g></svg>